<svg width="900" height="600" xmlns="http://www.w3.org/2000/svg" font-family="Arial" font-size="12"><style>
    .class-box { fill: #f9f9f9; stroke: #333; stroke-width: 1.5; }
    .title { font-weight: bold; text-anchor: middle; }
    .line { stroke: #333; stroke-width: 1; }
    .arrow { stroke: #333; stroke-width: 1.5; marker-end: url(#arrowhead); }
  </style><defs><marker id="arrowhead" markerWidth="10" markerHeight="7" refX="10" refY="3.5" orient="auto"><polygon points="0 0, 10 3.5, 0 7" fill="#333"></polygon></marker></defs><rect x="350" y="40" width="200" height="150" class="class-box"></rect><text x="450" y="60" class="title">Alert</text><line x1="350" y1="70" x2="550" y2="70" class="line"></line><text x="360" y="85">- title: string</text><text x="360" y="100">- link: string</text><text x="360" y="115">- pubDate: Date</text><text x="360" y="130">- markerPoint: any</text><text x="360" y="145">- type: string</text><text x="360" y="160">- category: string</text><text x="360" y="175">- lastUpdated: Date</text><text x="360" y="190">- id: any</text><rect x="50" y="300" width="220" height="180" class="class-box"></rect><text x="160" y="320" class="title">FireAlert</text><line x1="50" y1="330" x2="270" y2="330" class="line"></line><text x="60" y="345">- location: string</text><text x="60" y="360">- councilArea: string</text><text x="60" y="375">- size: number</text><text x="60" y="390">- fire: any</text><text x="60" y="405">- agency: string</text><text x="60" y="420">- polygon: any</text><text x="60" y="435">- status: string</text><text x="60" y="450">- alertLevel: string</text><rect x="340" y="300" width="240" height="220" class="class-box"></rect><text x="460" y="320" class="title">TrafficAlert</text><line x1="340" y1="330" x2="580" y2="330" class="line"></line><text x="350" y="345">- planned: boolean</text><text x="350" y="360">- startDate: Date</text><text x="350" y="375">- endDate: Date</text><text x="350" y="390">- polyline: any</text><text x="350" y="405">- ended: boolean</text><text x="350" y="420">- delay: number</text><text x="350" y="435">- headline: string</text><text x="350" y="450">- impactingNetwork: boolean</text><text x="350" y="465">- isMajor: boolean</text><text x="350" y="480">- queueLength: number</text><text x="350" y="495">- roads: any</text><text x="350" y="510">- speedLimit: number</text><rect x="650" y="300" width="220" height="160" class="class-box"></rect><text x="760" y="320" class="title">WeatherAlert</text><line x1="650" y1="330" x2="870" y2="330" class="line"></line><text x="660" y="345">- polygon: any</text><text x="660" y="360">- status: string</text><text x="660" y="375">- alertLevel: string</text><text x="660" y="390">- location: string</text><line x1="160" y1="300" x2="400" y2="190" class="arrow"></line><line x1="460" y1="300" x2="450" y2="190" class="arrow"></line><line x1="760" y1="300" x2="500" y2="190" class="arrow"></line></svg>